# xmcd
#
# Track frame offsets:
#	150
#	13641
#	26981
#	43482
#	47597
#	61682
#	75195
#	92904
#	112132
#	128031
#	142785
#	152896
#
# Disc length: 2234 seconds
#
# Revision: 1
# Processed by: cddbd v1.5.1PL2 Copyright (c) Steve Scherf et al.
# Submitted via: audiograbber 1.83.01
#
DISCID=9808b80c
DTITLE=Daniel Wylie - The high cost of happiness
DYEAR=2006
DGENRE=Country
TTITLE0=That was the day
TTITLE1=Tell them the truth
TTITLE2=I wouldn't lie
TTITLE3=I wanna hold you
TTITLE4=Define love
TTITLE5=Broadcast news
TTITLE6=The sound of children
TTITLE7=You're the only one that's going down
TTITLE8=Move in with me
TTITLE9=Rainbow city
TTITLE10=Where the time goes
TTITLE11=Can you feel the love?
EXTD=Copyright 2006 Neon Tetra (Records) Ltd
EXTT0=
EXTT1=
EXTT2=
EXTT3=
EXTT4=
EXTT5=
EXTT6=
EXTT7=
EXTT8=
EXTT9=
EXTT10=
EXTT11=
PLAYORDER=
